<svg width="764" height="107" viewBox="0 0 764 107" fill="none" xmlns="http://www.w3.org/2000/svg">
<mask id="path-1-outside-1_65_4" maskUnits="userSpaceOnUse" x="-0.280029" y="0.119995" width="764" height="107" fill="black">
<rect fill="white" x="-0.280029" y="0.119995" width="764" height="107"/>
<path d="M35.68 98H10.72L44.64 8.39999H70.24L104.16 98H79.2L73.44 82H41.44L35.68 98ZM47.2 65.36H67.68L57.44 35.28L47.2 65.36Z"/>
<path d="M107.867 79.44C131.248 80.72 147.078 81.36 155.355 81.36C157.318 81.36 158.854 80.8053 159.963 79.696C161.158 78.5013 161.755 76.9227 161.755 74.96V63.44H132.315C123.355 63.44 116.827 61.4347 112.731 57.424C108.72 53.328 106.715 46.8 106.715 37.84V34C106.715 25.04 108.72 18.5547 112.731 14.544C116.827 10.448 123.355 8.39999 132.315 8.39999H177.243V26.32H137.435C132.315 26.32 129.755 28.88 129.755 34V36.56C129.755 41.68 132.315 44.24 137.435 44.24H160.475C168.838 44.24 174.982 46.2027 178.907 50.128C182.832 54.0533 184.795 60.1973 184.795 68.56V74.96C184.795 83.3227 182.832 89.4667 178.907 93.392C174.982 97.3173 168.838 99.28 160.475 99.28C156.123 99.28 151.515 99.1947 146.651 99.024L134.875 98.512C126.171 98.0853 117.168 97.488 107.867 96.72V79.44Z"/>
<path d="M233.45 98H210.41V26.32H183.53V8.39999H260.33V26.32H233.45V98Z"/>
<path d="M340.345 98H269.305V8.39999H340.345V26.32H292.345V43.6H330.105V61.52H292.345V80.08H340.345V98Z"/>
<path d="M350.555 8.39999H404.315C413.275 8.39999 419.76 10.448 423.771 14.544C427.867 18.5547 429.915 25.04 429.915 34V45.52C429.915 52.6027 428.72 58.1067 426.331 62.032C424.027 65.9573 420.315 68.56 415.195 69.84L431.195 98H406.235L391.515 71.12H373.595V98H350.555V8.39999ZM406.875 34C406.875 28.88 404.315 26.32 399.195 26.32H373.595V53.2H399.195C404.315 53.2 406.875 50.64 406.875 45.52V34Z"/>
<path d="M500.28 32.72C500.28 27.6 497.72 25.04 492.6 25.04H470.84C465.72 25.04 463.16 27.6 463.16 32.72V73.68C463.16 78.8 465.72 81.36 470.84 81.36H492.6C497.72 81.36 500.28 78.8 500.28 73.68V32.72ZM523.32 73.68C523.32 82.64 521.272 89.168 517.176 93.264C513.165 97.2747 506.68 99.28 497.72 99.28H465.72C456.76 99.28 450.232 97.2747 446.136 93.264C442.125 89.168 440.12 82.64 440.12 73.68V32.72C440.12 23.76 442.125 17.2747 446.136 13.264C450.232 9.16799 456.76 7.12 465.72 7.12H497.72C506.68 7.12 513.165 9.16799 517.176 13.264C521.272 17.2747 523.32 23.76 523.32 32.72V73.68Z"/>
<path d="M578.42 98H532.34V80.08H543.86V26.32H532.34V8.39999H578.42V26.32H566.9V80.08H578.42V98Z"/>
<path d="M639.85 8.39999C649.493 8.39999 656.789 10.9173 661.738 15.952C666.773 20.9013 669.29 28.1973 669.29 37.84V68.56C669.29 78.2027 666.773 85.5413 661.738 90.576C656.789 95.5253 649.493 98 639.85 98H589.93V8.39999H639.85ZM646.25 37.84C646.25 30.16 642.41 26.32 634.73 26.32H612.97V80.08H634.73C642.41 80.08 646.25 76.24 646.25 68.56V37.84Z"/>
<path d="M679.367 79.44C702.748 80.72 718.578 81.36 726.855 81.36C728.818 81.36 730.354 80.8053 731.463 79.696C732.658 78.5013 733.255 76.9227 733.255 74.96V63.44H703.815C694.855 63.44 688.327 61.4347 684.231 57.424C680.22 53.328 678.215 46.8 678.215 37.84V34C678.215 25.04 680.22 18.5547 684.231 14.544C688.327 10.448 694.855 8.39999 703.815 8.39999H748.743V26.32H708.935C703.815 26.32 701.255 28.88 701.255 34V36.56C701.255 41.68 703.815 44.24 708.935 44.24H731.975C740.338 44.24 746.482 46.2027 750.407 50.128C754.332 54.0533 756.295 60.1973 756.295 68.56V74.96C756.295 83.3227 754.332 89.4667 750.407 93.392C746.482 97.3173 740.338 99.28 731.975 99.28C727.623 99.28 723.015 99.1947 718.151 99.024L706.375 98.512C697.671 98.0853 688.668 97.488 679.367 96.72V79.44Z"/>
</mask>
<path d="M35.68 98H10.72L44.64 8.39999H70.24L104.16 98H79.2L73.44 82H41.44L35.68 98ZM47.2 65.36H67.68L57.44 35.28L47.2 65.36Z" fill="#FFFE3D"/>
<path d="M107.867 79.44C131.248 80.72 147.078 81.36 155.355 81.36C157.318 81.36 158.854 80.8053 159.963 79.696C161.158 78.5013 161.755 76.9227 161.755 74.96V63.44H132.315C123.355 63.44 116.827 61.4347 112.731 57.424C108.72 53.328 106.715 46.8 106.715 37.84V34C106.715 25.04 108.72 18.5547 112.731 14.544C116.827 10.448 123.355 8.39999 132.315 8.39999H177.243V26.32H137.435C132.315 26.32 129.755 28.88 129.755 34V36.56C129.755 41.68 132.315 44.24 137.435 44.24H160.475C168.838 44.24 174.982 46.2027 178.907 50.128C182.832 54.0533 184.795 60.1973 184.795 68.56V74.96C184.795 83.3227 182.832 89.4667 178.907 93.392C174.982 97.3173 168.838 99.28 160.475 99.28C156.123 99.28 151.515 99.1947 146.651 99.024L134.875 98.512C126.171 98.0853 117.168 97.488 107.867 96.72V79.44Z" fill="#FFFE3D"/>
<path d="M233.45 98H210.41V26.32H183.53V8.39999H260.33V26.32H233.45V98Z" fill="#FFFE3D"/>
<path d="M340.345 98H269.305V8.39999H340.345V26.32H292.345V43.6H330.105V61.52H292.345V80.08H340.345V98Z" fill="#FFFE3D"/>
<path d="M350.555 8.39999H404.315C413.275 8.39999 419.76 10.448 423.771 14.544C427.867 18.5547 429.915 25.04 429.915 34V45.52C429.915 52.6027 428.72 58.1067 426.331 62.032C424.027 65.9573 420.315 68.56 415.195 69.84L431.195 98H406.235L391.515 71.12H373.595V98H350.555V8.39999ZM406.875 34C406.875 28.88 404.315 26.32 399.195 26.32H373.595V53.2H399.195C404.315 53.2 406.875 50.64 406.875 45.52V34Z" fill="#FFFE3D"/>
<path d="M500.28 32.72C500.28 27.6 497.72 25.04 492.6 25.04H470.84C465.72 25.04 463.16 27.6 463.16 32.72V73.68C463.16 78.8 465.72 81.36 470.84 81.36H492.6C497.72 81.36 500.28 78.8 500.28 73.68V32.72ZM523.32 73.68C523.32 82.64 521.272 89.168 517.176 93.264C513.165 97.2747 506.68 99.28 497.72 99.28H465.72C456.76 99.28 450.232 97.2747 446.136 93.264C442.125 89.168 440.12 82.64 440.12 73.68V32.72C440.12 23.76 442.125 17.2747 446.136 13.264C450.232 9.16799 456.76 7.12 465.72 7.12H497.72C506.68 7.12 513.165 9.16799 517.176 13.264C521.272 17.2747 523.32 23.76 523.32 32.72V73.68Z" fill="#FFFE3D"/>
<path d="M578.42 98H532.34V80.08H543.86V26.32H532.34V8.39999H578.42V26.32H566.9V80.08H578.42V98Z" fill="#FFFE3D"/>
<path d="M639.85 8.39999C649.493 8.39999 656.789 10.9173 661.738 15.952C666.773 20.9013 669.29 28.1973 669.29 37.84V68.56C669.29 78.2027 666.773 85.5413 661.738 90.576C656.789 95.5253 649.493 98 639.85 98H589.93V8.39999H639.85ZM646.25 37.84C646.25 30.16 642.41 26.32 634.73 26.32H612.97V80.08H634.73C642.41 80.08 646.25 76.24 646.25 68.56V37.84Z" fill="#FFFE3D"/>
<path d="M679.367 79.44C702.748 80.72 718.578 81.36 726.855 81.36C728.818 81.36 730.354 80.8053 731.463 79.696C732.658 78.5013 733.255 76.9227 733.255 74.96V63.44H703.815C694.855 63.44 688.327 61.4347 684.231 57.424C680.22 53.328 678.215 46.8 678.215 37.84V34C678.215 25.04 680.22 18.5547 684.231 14.544C688.327 10.448 694.855 8.39999 703.815 8.39999H748.743V26.32H708.935C703.815 26.32 701.255 28.88 701.255 34V36.56C701.255 41.68 703.815 44.24 708.935 44.24H731.975C740.338 44.24 746.482 46.2027 750.407 50.128C754.332 54.0533 756.295 60.1973 756.295 68.56V74.96C756.295 83.3227 754.332 89.4667 750.407 93.392C746.482 97.3173 740.338 99.28 731.975 99.28C727.623 99.28 723.015 99.1947 718.151 99.024L706.375 98.512C697.671 98.0853 688.668 97.488 679.367 96.72V79.44Z" fill="#FFFE3D"/>
<path d="M35.68 98H10.72L44.64 8.39999H70.24L104.16 98H79.2L73.44 82H41.44L35.68 98ZM47.2 65.36H67.68L57.44 35.28L47.2 65.36Z" stroke="#FF0000" stroke-width="14" mask="url(#path-1-outside-1_65_4)"/>
<path d="M107.867 79.44C131.248 80.72 147.078 81.36 155.355 81.36C157.318 81.36 158.854 80.8053 159.963 79.696C161.158 78.5013 161.755 76.9227 161.755 74.96V63.44H132.315C123.355 63.44 116.827 61.4347 112.731 57.424C108.72 53.328 106.715 46.8 106.715 37.84V34C106.715 25.04 108.72 18.5547 112.731 14.544C116.827 10.448 123.355 8.39999 132.315 8.39999H177.243V26.32H137.435C132.315 26.32 129.755 28.88 129.755 34V36.56C129.755 41.68 132.315 44.24 137.435 44.24H160.475C168.838 44.24 174.982 46.2027 178.907 50.128C182.832 54.0533 184.795 60.1973 184.795 68.56V74.96C184.795 83.3227 182.832 89.4667 178.907 93.392C174.982 97.3173 168.838 99.28 160.475 99.28C156.123 99.28 151.515 99.1947 146.651 99.024L134.875 98.512C126.171 98.0853 117.168 97.488 107.867 96.72V79.44Z" stroke="#FF0000" stroke-width="14" mask="url(#path-1-outside-1_65_4)"/>
<path d="M233.45 98H210.41V26.32H183.53V8.39999H260.33V26.32H233.45V98Z" stroke="#FF0000" stroke-width="14" mask="url(#path-1-outside-1_65_4)"/>
<path d="M340.345 98H269.305V8.39999H340.345V26.32H292.345V43.6H330.105V61.52H292.345V80.08H340.345V98Z" stroke="#FF0000" stroke-width="14" mask="url(#path-1-outside-1_65_4)"/>
<path d="M350.555 8.39999H404.315C413.275 8.39999 419.76 10.448 423.771 14.544C427.867 18.5547 429.915 25.04 429.915 34V45.52C429.915 52.6027 428.72 58.1067 426.331 62.032C424.027 65.9573 420.315 68.56 415.195 69.84L431.195 98H406.235L391.515 71.12H373.595V98H350.555V8.39999ZM406.875 34C406.875 28.88 404.315 26.32 399.195 26.32H373.595V53.2H399.195C404.315 53.2 406.875 50.64 406.875 45.52V34Z" stroke="#FF0000" stroke-width="14" mask="url(#path-1-outside-1_65_4)"/>
<path d="M500.28 32.72C500.28 27.6 497.72 25.04 492.6 25.04H470.84C465.72 25.04 463.16 27.6 463.16 32.72V73.68C463.16 78.8 465.72 81.36 470.84 81.36H492.6C497.72 81.36 500.28 78.8 500.28 73.68V32.72ZM523.32 73.68C523.32 82.64 521.272 89.168 517.176 93.264C513.165 97.2747 506.68 99.28 497.72 99.28H465.72C456.76 99.28 450.232 97.2747 446.136 93.264C442.125 89.168 440.12 82.64 440.12 73.68V32.72C440.12 23.76 442.125 17.2747 446.136 13.264C450.232 9.16799 456.76 7.12 465.72 7.12H497.72C506.68 7.12 513.165 9.16799 517.176 13.264C521.272 17.2747 523.32 23.76 523.32 32.72V73.68Z" stroke="#FF0000" stroke-width="14" mask="url(#path-1-outside-1_65_4)"/>
<path d="M578.42 98H532.34V80.08H543.86V26.32H532.34V8.39999H578.42V26.32H566.9V80.08H578.42V98Z" stroke="#FF0000" stroke-width="14" mask="url(#path-1-outside-1_65_4)"/>
<path d="M639.85 8.39999C649.493 8.39999 656.789 10.9173 661.738 15.952C666.773 20.9013 669.29 28.1973 669.29 37.84V68.56C669.29 78.2027 666.773 85.5413 661.738 90.576C656.789 95.5253 649.493 98 639.85 98H589.93V8.39999H639.85ZM646.25 37.84C646.25 30.16 642.41 26.32 634.73 26.32H612.97V80.08H634.73C642.41 80.08 646.25 76.24 646.25 68.56V37.84Z" stroke="#FF0000" stroke-width="14" mask="url(#path-1-outside-1_65_4)"/>
<path d="M679.367 79.44C702.748 80.72 718.578 81.36 726.855 81.36C728.818 81.36 730.354 80.8053 731.463 79.696C732.658 78.5013 733.255 76.9227 733.255 74.96V63.44H703.815C694.855 63.44 688.327 61.4347 684.231 57.424C680.22 53.328 678.215 46.8 678.215 37.84V34C678.215 25.04 680.22 18.5547 684.231 14.544C688.327 10.448 694.855 8.39999 703.815 8.39999H748.743V26.32H708.935C703.815 26.32 701.255 28.88 701.255 34V36.56C701.255 41.68 703.815 44.24 708.935 44.24H731.975C740.338 44.24 746.482 46.2027 750.407 50.128C754.332 54.0533 756.295 60.1973 756.295 68.56V74.96C756.295 83.3227 754.332 89.4667 750.407 93.392C746.482 97.3173 740.338 99.28 731.975 99.28C727.623 99.28 723.015 99.1947 718.151 99.024L706.375 98.512C697.671 98.0853 688.668 97.488 679.367 96.72V79.44Z" stroke="#FF0000" stroke-width="14" mask="url(#path-1-outside-1_65_4)"/>
</svg>
